Patient4_TMGait_0pt4_02_right_18_EMG.mot
version=1
nRows=20
nColumns=33
inDegrees=no
endheader
time	1LAddLong	2LGlutMax	3LGlutMed	4LIliopsoas	5LSemiMemb	6LBicFemLong	7LRecFem	8LVastMed	9LVastLat	10LGasMed	11LTibAnt	12lTibPost	13LPeroneusLong	14LSol	15LExtDigLong	16LFlexDigLong	17RAddLong	18RGlutMax	19RGlutMed	20RIliopsoas	21RSemiMemb	22RBicFemLong	23RRecFem	24RVastMed	25RVastLat	26RGasMed	27RTibAnt	28RTibPost	29RPeroneusLong	30RSol	31RExtDigLong	32RFlexDigLong
23.907	-0.005646	-0.031891	0.18707	0.009766	0.001984	-0.014343	-0.039215	0.007324	-0.013428	0.59082	-0.003204	0.20004	-0.06134	-1.5163	0.021667	0.19211	0.007172	-0.3775	-0.37888	-0.019379	0.095673	0.026398	0.45013	-0.081635	-0.12619	-0.011139	-0.049591	-0.00946	-0.85846	0.083008	-0.003052	-0.01297
23.908	-0.006866	-0.029755	0.17425	0.023193	0.004272	-0.029755	-0.041046	0.006256	-0.017395	0.11688	-0.002136	0.14938	0.003052	-2.0622	0.061493	-0.15396	0.03479	-0.43869	-0.47775	-0.038605	0.14954	-0.049133	0.53833	0.098877	-0.063171	-0.006104	-0.068817	-0.013123	-1.1858	-0.015717	-0.003052	-0.005341
23.909	0.001526	-0.001068	0.15823	0.021973	0.013275	-0.027618	-0.0383	0.000305	-0.01358	-0.56091	0.007782	-0.42587	0.19257	-1.445	0.024109	-0.1944	0.053558	-0.47485	-0.3508	-0.015869	0.14877	-0.23514	0.54031	0.045624	-0.070496	0.002136	-0.168	-0.014343	0.27161	0.041962	-0.002747	-0.01236
23.91	-0.005035	0.007935	0.15305	0.008545	0.003967	0.016479	-0.039063	0.007477	-0.00946	-0.50384	0.007477	-0.16129	0.31662	-0.74204	-0.011444	-0.053406	0.029297	-0.62088	0.26764	0.002441	0.016479	-0.32288	0.4924	-0.037537	-0.090332	-0.014496	-0.014038	-0.016174	1.1589	-0.003662	-0.000458	-0.014343
23.911	-0.006561	0.007477	0.1355	0.004883	0.006256	0.022278	-0.023193	0.003204	-0.030518	-0.33752	0.002899	0.25406	0.23056	0.12268	-0.0354	-0.25116	-0.020447	-0.6694	0.26276	-0.011749	-0.1561	-0.33707	0.49469	-0.074158	-0.10666	-0.015564	0.18402	-0.016174	1.3315	0.019684	-0.003052	-0.016479
23.912	-0.004883	0.018158	0.13367	0.021973	0.005951	0.018921	-0.018768	0.004272	-0.022736	-0.27725	0.013123	0.32913	0.052185	0.50232	-0.023804	0.38834	-0.023651	-0.6308	0.13184	0.01709	-0.36728	-0.26566	0.34409	0.30228	0.018921	0.000916	0.13321	-0.00824	1.342	-0.10605	-0.005188	-0.012665
23.913	-0.008698	-0.010223	0.13763	-0.002289	0.009613	-0.010529	-0.00946	0.003815	-0.027008	-0.18143	0.010071	-0.1796	-0.26504	0.95993	0.02533	-0.29816	-0.01297	-0.69275	-0.16235	0.062561	-0.26947	-0.15137	0.24368	0.45959	-0.012054	0.016479	-0.16998	-0.010834	2.3198	-0.21591	-0.001068	-0.007019
23.914	-0.011139	-0.000458	0.15503	-0.00946	0.011139	0.016632	0.01236	-0.001221	-0.02594	-0.087433	-0.011444	-0.16922	-0.25803	0.94269	0.071411	-0.012817	-0.03067	-0.74356	-0.78919	0.10773	-0.19226	-0.10986	0.2655	0.16541	-0.083008	0.015411	-0.14618	-0.014954	1.0249	-0.20355	-0.001984	0.001221
23.915	-0.002136	0.031586	0.12085	0.001526	-0.007935	-0.010681	0.003204	-0.000458	-0.035248	0.039063	-0.004425	0.24735	-0.17136	0.75333	0.076141	0.35553	-0.000305	-0.80261	-0.30395	0.069275	-0.033569	-0.081024	0.37399	-0.032806	-0.12894	0.027313	0.001068	-0.017242	-2.1381	0.070343	-0.009155	0.002594
23.916	-0.015717	0.045776	0.12878	0.006866	0.000916	0.001373	0.025024	0.007782	-0.041504	0.3273	-0.00473	-0.51559	0.033264	0.2919	0.049438	0.31036	0.034485	-0.78171	0.62958	-0.005341	0.3009	-0.12192	0.37323	-0.045471	0.16144	0.008698	0.1503	-0.014343	-2.1725	0.084839	-0.002136	-0.002747
23.917	-0.012665	0.06485	0.12421	0.00885	-0.002899	0.005798	0.032654	0.00473	-0.03952	0.55405	-0.007172	-0.20981	0.13702	0.052643	0.021667	-0.57404	0.026245	-0.82916	-0.088959	0.000916	0.2507	-0.18112	0.54764	-0.13229	0.31494	-0.006409	-0.054626	0.000305	-0.26077	-0.087891	-0.003967	0.006256
23.918	-0.007935	0.079498	0.11581	-0.00061	-0.003052	0.011139	0.05722	-0.001678	-0.037689	0.4512	-0.003052	0.053101	0.16769	-0.13229	0.004272	-0.019684	0.014648	-0.81512	-0.16403	-0.061035	-0.10712	-0.28549	0.6633	-0.29434	0.1976	-0.020599	-0.25162	0.003357	-0.83511	-0.023956	-0.002441	-0.005341
23.919	-0.002136	0.11169	0.10696	0.012512	0.005341	0.022736	0.027618	0.007324	-0.039673	0.17899	0.004578	0.21316	0.27283	0.037537	0.016632	0.067444	-0.030518	-0.89233	-1.0692	-0.15579	-0.19775	-0.23651	0.67627	-0.26581	-0.010834	-0.018768	-0.16312	-0.011749	-0.19974	-0.19302	-0.001221	-0.008698
23.92	-0.010071	0.1091	0.10956	-0.000916	-0.002899	0.0177	0.052795	0.006714	-0.040741	0.29251	0.006104	-0.30777	0.31204	0.45349	0.019226	-0.045471	-0.077667	-0.88852	-0.14511	-0.22247	-0.1004	-0.067444	0.59616	-0.11627	-0.27512	-0.037842	-0.053253	-0.012512	0.84763	-0.12787	-0.000916	-0.02243
23.921	-0.000763	0.1532	0.093231	0.014801	0.009003	0.017242	0.050354	0.001221	-0.034485	0.24887	0.001831	-0.08728	0.27741	0.14099	-0.006256	0.041046	-0.057526	-1.0875	0.15503	-0.11658	-0.12222	-0.016632	0.51636	-0.072327	-0.39398	-0.020142	0.10925	-0.019379	0.75836	0.13794	-0.007172	-0.018616
23.922	0.007477	0.14236	0.088959	-0.01236	0.005951	0.011292	0.030518	0.004578	-0.037231	-0.053558	-0.007019	0.40024	-0.25452	0.26032	0.035706	-0.021973	-0.036774	-1.1243	0.46326	0.007172	-0.099792	-0.046387	-0.072174	-0.1265	-0.50537	-0.023804	0.13489	-0.014801	-0.82932	-0.056763	-0.002747	-0.023041
23.923	0.006866	0.11078	0.065765	0.004272	-0.041046	-0.000763	0.018768	0.009308	-0.022583	-0.57587	-0.001526	0.27329	-0.49606	-0.31403	0.007477	0.008392	-0.036011	-1.3127	0.36346	0.027161	-0.1561	-0.096741	-0.097198	0.087738	-0.45288	0.035248	0.12817	-0.019836	-1.0048	0.017548	-0.001373	-0.022125
23.924	0.006104	0.10086	0.050659	0.016937	-0.015564	0.011749	0.032349	0.012665	-0.010376	-0.51285	0.001831	-0.1886	-0.45532	-0.13397	-0.1297	-0.39749	-0.021362	-1.2901	-0.63568	0.14786	-0.22659	-0.014038	0.14923	0.2771	-0.23575	0.034637	-0.061798	0.014801	0.099945	0.15243	-0.002747	-0.013885
23.925	0.006866	0.14114	0.06424	-0.001373	0.001984	0.011139	0.039063	0.004578	-0.00473	-0.072937	0.001221	-0.04364	-0.45502	-0.030975	-0.15823	0.056152	-0.003052	-1.2663	0.033569	0.1532	-0.21561	0.083466	0.36057	0.31158	0.042572	0.001068	-0.15961	0.003815	0.67398	0.19394	0.001068	-0.007782
23.926	0.006866	0.12726	0.061798	0.009155	0.010834	0.026398	0.026703	0.003204	-0.004425	0.44907	0.001831	-0.10941	-0.19073	0.082092	-0.13855	0.13657	-0.016022	-1.2701	0.26337	0.22858	-0.027618	0.16724	0.45395	0.42664	0.55985	-0.007935	-0.13428	-0.000458	0.4982	-0.26535	-0.000458	-0.023499
